/* XPM */
static char *c0e84b814e1443cac2ff245e21ec4b57[] = {
/* columns rows colors chars-per-pixel */
"32 32 132 2 ",
"   c #BF101B",
".  c #BB1C2C",
"X  c #AF2338",
"o  c #B42239",
"O  c #C70204",
"+  c #CB0101",
"@  c #C3070C",
"#  c #CF070C",
"$  c #CC0A0F",
"%  c #D40001",
"&  c #DB0101",
"*  c #D30609",
"=  c #DC070A",
"-  c #D30C0C",
";  c #DC090D",
":  c #CC0C14",
">  c #C30F19",
",  c #D40B12",
"<  c #DC0C12",
"1  c #C4131D",
"2  c #CF111A",
"3  c #DF1C1B",
"4  c #E40001",
"5  c #EB0000",
"6  c #E40609",
"7  c #E2090E",
"8  c #EC0A0F",
"9  c #F30101",
"0  c #F1080B",
"q  c #E50D12",
"w  c #E51016",
"e  c #EF1014",
"r  c #EC1A1C",
"t  c #DD3030",
"y  c #E32D2C",
"u  c #EA2C2C",
"i  c #F62827",
"p  c #F22B2C",
"a  c #EE3535",
"s  c #F33535",
"d  c #B03149",
"f  c #8C4167",
"g  c #DB4242",
"h  c #EF4646",
"j  c #F54B4B",
"k  c #ED504D",
"l  c #F75555",
"z  c #E46E6E",
"x  c #ED6E6E",
"c  c #FA6564",
"v  c #E87171",
"b  c #F47172",
"n  c #FC7575",
"m  c #F07C7C",
"M  c #66609A",
"N  c #636CAA",
"B  c #687BB9",
"V  c #097EE4",
"C  c #417FD0",
"Z  c #3F81D2",
"A  c #0E82E5",
"S  c #1585E6",
"D  c #1887E7",
"F  c #1B89E7",
"G  c #1C8AE9",
"H  c #248DE9",
"J  c #2A8FEA",
"K  c #2C91EB",
"L  c #3495EC",
"P  c #3997ED",
"I  c #3798EC",
"U  c #3C9AEC",
"Y  c #2693F1",
"T  c #2E96F0",
"R  c #269DFB",
"E  c #359DF2",
"W  c #37A0F5",
"Q  c #3AA0F5",
"!  c #34A3FB",
"~  c #3FA8FB",
"^  c #5989CF",
"/  c #4598E7",
"(  c #429DED",
")  c #4CA2EE",
"_  c #55A7EF",
"`  c #57A8EF",
"'  c #5AA9EF",
"]  c #57A7F0",
"[  c #5CAAF0",
"{  c #5DB2F8",
"}  c #61ACEF",
"|  c #66B0EF",
" . c #62ADF1",
".. c #66B0F1",
"X. c #6EB4F1",
"o. c #73B6F2",
"O. c #77B9F2",
"+. c #F38181",
"@. c #FB8484",
"#. c #F88888",
"$. c #F69595",
"%. c #F89495",
"&. c #F99A99",
"*. c #F6A2A1",
"=. c #FBA4A4",
"-. c #FCB5B4",
";. c #FAB9B9",
":. c #83BFF4",
">. c #87C1F3",
",. c #8CC3F4",
"<. c #95C8F6",
"1. c #9ACBF6",
"2. c #9ACEF9",
"3. c #A2CFF6",
"4. c #A6D1F6",
"5. c #ACD4F7",
"6. c #B0D5F7",
"7. c #B1D7F8",
"8. c #B6D9F8",
"9. c #BCDCF9",
"0. c #F5C0C0",
"q. c #FAC5C3",
"w. c #F5C8C8",
"e. c #C1DFFA",
"r. c #C5E1F9",
"t. c #D7EAFB",
"y. c #DAECFC",
"u. c #E0EFFC",
"i. c #EAF4FD",
"p. c #F4F9FE",
"a. c gray100",
"s. c None",
/* pixels */
"s.s.s.s.s.s.s.s.s.s.s.s.s.s.s.s.s.s.s.s.s.s.s.s.s.s.s.s.s.s.s.s.",
"s.s.s.s.s.s.s.s.s.s.s.s.s.s.s.s.s.s.s.s.s.s.s.s.s.s.s.s.s.s.s.s.",
"s.s.s.s.s.s.s.s.s.s.s.s.s.s.s.s.s.s.s.s.s.s.s.9 s.s.s.s.s.s.s.s.",
"s.s.s.s.s.s.s.s.s.s.s.s.s.s.s.s.s.s.0 0 9 9 9 n c e s.s.s.s.s.s.",
"s.s.s.s.s.s.s.s.s.s.s.s.s.s.s.s.s.8 9 @.-.s 9 l =.i 9 s.s.s.s.s.",
"s.s.s.s.s.s.s.s.s.s.s.s.s.s.s.s.9 w s.p #.j 9 9 5 9 9 9 0 s.s.s.",
"s.s.s.s.s.s.s.s.s.s.s.s.s.s.s.q 9 5 q s.5 5 5 5 5 5 5 %.&.r s.s.",
"s.s.s.s.s.s.s.s.s.s.s.s.s.s.s.6 5 5 5 6 s.8 5 b ;.h 5 a $.a 5 s.",
"s.s.s.s.s.s.s.s.s.s.s.s.s.s.s.5 5 4 5 5 4 s.s.u *.+.5 4 4 6 = s.",
"s.s.s.s.s.s.s.s.s.s.s.s.s.s.s.6 5 5 5 4 4 4 < s.4 4 = s.s.6 6 6 ",
"s.s.s.s.s.s.s.s.U ] ) ( P E / ^ B s.d 4 x m 4 ; s.s.< 6 & 4 4 s.",
"s.s.s.s.s.s.s.) 7.7.) P o.9.2.W ! s.s., q.a.y & s.& & & & & = s.",
"s.s.s.s.s.I P ) 2.4._ P :.,._ s.s.U Q o k 0.3 $ 2 & % & & & s.s.",
"s.s.s.( o.o.I _ 4.,.( P L L s.U P I ! s.& % & s.* % t v % & s.s.",
"s.P I 1.e.X.L _ 7.e.[ L s.s.U L X.r.~ N & % # s.% - w.z % . s.s.",
"s.I I U L K K ..<.[ L s.L L L T 9.a.{ C $ % 1 : % - g + % s.s.s.",
"L L L s.s.s.s.K J s.s.L K K L K 1.y.P T X % s.+ + + O % > s.s.s.",
"T P K K H K L L s.s.K L 3.O.K L L I T R f *   O O + + s.s.s.s.s.",
"s.5.3.I >.P K L J s.H [ a.u.K K K K K R M s.@ O O s.s.s.s.s.s.s.",
"s.o.a.} p.7.) y. .s.H ' a.6.H J K J J Y Z s.O s.s.s.s.s.s.s.s.s.",
"s.H ..P O.y.( i.i.K H K ' I H J J K 8.,.G s.s.s.s.s.s.s.s.s.s.s.",
"s.s.G H H I G ` 4.T s.K H H K J G ) a.8.G s.s.s.s.s.s.s.s.s.s.s.",
"s.s.H G F H J F D H s.H H H D F H L 8.' G s.s.s.s.s.s.s.s.s.s.s.",
"s.s.s.` I D D F H F s.H G H >.) D G D F s.s.s.s.s.s.s.s.s.s.s.s.",
"s.s.s.1.u.I 1.I D F D s.S X.a.1.A H G s.s.s.s.s.s.s.s.s.s.s.s.s.",
"s.s.s.K 8.) t.e.U r.U s.A O.a.| A F s.s.s.s.s.s.s.s.s.s.s.s.s.s.",
"s.s.s.s.S S U 1.K i.t.s.D H ) D D s.s.s.s.s.s.s.s.s.s.s.s.s.s.s.",
"s.s.s.s.s.s.S A A ( ,.F s.D A S s.s.s.s.s.s.s.s.s.s.s.s.s.s.s.s.",
"s.s.s.s.s.s.s.s.s.A V D s.D D s.s.s.s.s.s.s.s.s.s.s.s.s.s.s.s.s.",
"s.s.s.s.s.s.s.s.s.s.s.S s.s.s.s.s.s.s.s.s.s.s.s.s.s.s.s.s.s.s.s.",
"s.s.s.s.s.s.s.s.s.s.s.s.s.s.s.s.s.s.s.s.s.s.s.s.s.s.s.s.s.s.s.s.",
"s.s.s.s.s.s.s.s.s.s.s.s.s.s.s.s.s.s.s.s.s.s.s.s.s.s.s.s.s.s.s.s."
};
