/* XPM */
static char *Free_Converter_com_kingdice_pr2_4065311[] = {
/* columns rows colors chars-per-pixel */
"16 14 117 2 ",
"   c #6D314C",
".  c #664F72",
"X  c #91121C",
"o  c #A30000",
"O  c #A60000",
"+  c #A70000",
"@  c #A60101",
"#  c #A50305",
"$  c #AB0000",
"%  c #AD0405",
"&  c #B30303",
"*  c #B50000",
"=  c #B60000",
"-  c #B30606",
";  c #B80000",
":  c #BE0000",
">  c #BF0101",
",  c #BE0102",
"<  c #B90507",
"1  c #BF0505",
"2  c #B00F0F",
"3  c #B00B11",
"4  c #B71212",
"5  c #BE2727",
"6  c #A32934",
"7  c #BF3C3C",
"8  c #C30000",
"9  c #C40000",
"0  c #C80000",
"q  c #C10C0C",
"w  c #C31515",
"e  c #CD1010",
"r  c #CD1212",
"t  c #CE1717",
"y  c #D31F1F",
"u  c #D41E1E",
"i  c #C12121",
"p  c #CD2424",
"a  c #CE2B2B",
"s  c #D32D2D",
"d  c #D72D2D",
"f  c #CC3737",
"g  c #C43A3A",
"h  c #D34545",
"j  c #D44646",
"k  c #D84646",
"l  c #DB4747",
"z  c #235691",
"x  c #2B5C95",
"c  c #2D5E96",
"v  c #2D5E97",
"b  c #2F5F97",
"n  c #306097",
"m  c #326299",
"M  c #336299",
"N  c #34639A",
"B  c #35639A",
"V  c #37659B",
"C  c #38669C",
"Z  c #39669C",
"A  c #3A679D",
"S  c #39689D",
"D  c #3D6A9E",
"F  c #3E6A9E",
"G  c #485F8E",
"H  c #505A86",
"J  c #406C9F",
"K  c #496E9E",
"L  c #6A749A",
"P  c #406CA0",
"I  c #416DA0",
"U  c #426DA0",
"Y  c #426EA0",
"T  c #446FA2",
"R  c #4570A2",
"E  c #4772A3",
"W  c #4473A6",
"Q  c #4B74A5",
"!  c #4B76A6",
"~  c #4D76A6",
"^  c #5179A8",
"/  c #5279A8",
"(  c #527AA8",
")  c #527AA9",
"_  c #547BAA",
"`  c #547CA9",
"'  c #557CAA",
"]  c #597FAC",
"[  c #677DA5",
"{  c #5B81AD",
"}  c #5C82AE",
"|  c #5D82AE",
" . c #6287B1",
".. c #6387B1",
"X. c #6588B2",
"o. c #688BB4",
"O. c #698BB4",
"+. c #7091B8",
"@. c #7494B9",
"#. c #7494BA",
"$. c #7796BB",
"%. c #7C9ABE",
"&. c #7F9DBF",
"*. c #DF8685",
"=. c #809DC0",
"-. c #83A0C1",
";. c #84A1C1",
":. c #84A1C2",
">. c #86A2C2",
",. c #89A4C4",
"<. c #8AA5C4",
"1. c #94ADCA",
"2. c #97AFCB",
"3. c #A2B9D2",
"4. c #A4B9D2",
"5. c #BBCBDD",
"6. c None",
/* pixels */
"6.6.6.6.6.6.6.6.6.y u d k 6.6.6.",
"6.6.6.6.6.6.6.6.0 s k e t e 6.6.",
"6.6.6.6.6.6.6.6.9 8 8 p j a j 6.",
"6.6.6.6.6.6.6.3 < > q w f 1 > > ",
"6.6.6.6.;./ @.[ H 6 *.5 * * ; ; ",
"6.6.X.' 2./ | Q W . g 4 & 5 - 6.",
"6.] ..` <.Q B U 3.L # $ 2 g % 6.",
"U D B V 6.U ..J @.K X @ @ @ 6.6.",
"=.<.&.o./ { 5.U m Z   o 6.6.6.6.",
"6.' +.-.;.Z ~ n R 2.G 6.6.6.6.6.",
"6.Z V b m c m R D o.6.6.6.6.6.6.",
"6.6.&.#./ Z | 4.c 6.6.6.6.6.6.6.",
"6.6.W ..%.@.Z ~ 6.6.6.6.6.6.6.6.",
"6.6.6.6.c m z 6.6.6.6.6.6.6.6.6."
};
