/* XPM */
static char *a4008712bb624309b9db4950ff444fc5[] = {
/* columns rows colors chars-per-pixel */
"64 64 154 2 ",
"   c #BF090F",
".  c #BE0F1B",
"X  c #C70101",
"o  c #CC0000",
"O  c #C5060B",
"+  c #CC0508",
"@  c #C1080E",
"#  c #D40000",
"$  c #DB0000",
"%  c #D00609",
"&  c #DD0609",
"*  c #D30B0E",
"=  c #DC090E",
"-  c #C70E15",
";  c #CA0D14",
":  c #D50E16",
">  c #DC0C12",
",  c #D00F18",
"<  c #C2121E",
"1  c #CE131D",
"2  c #DE121A",
"3  c #D71E1E",
"4  c #DE1F1F",
"5  c #E40001",
"6  c #EB0000",
"7  c #E20609",
"8  c #EC070A",
"9  c #E4080C",
"0  c #ED0B0D",
"q  c #F30101",
"w  c #F80100",
"e  c #F2070A",
"r  c #F2090B",
"t  c #E40D13",
"y  c #EE0C12",
"u  c #E71216",
"i  c #E0121A",
"p  c #EC1C1C",
"a  c #F11112",
"s  c #F81112",
"d  c #F11819",
"f  c #F81D1D",
"g  c #C71522",
"h  c #DD2626",
"j  c #EB2222",
"k  c #E32E2E",
"l  c #F32424",
"z  c #F52828",
"x  c #E03737",
"c  c #ED3030",
"v  c #E03D3D",
"b  c #F33535",
"n  c #F63B3B",
"m  c #DF5151",
"M  c #E44444",
"N  c #EC4F4F",
"B  c #F34242",
"V  c #F24C4C",
"C  c #E15454",
"Z  c #EB5252",
"A  c #E85E5E",
"S  c #F65D5D",
"D  c #EF6262",
"F  c #E76E6E",
"G  c #F66364",
"H  c #F96666",
"J  c #F16E6E",
"K  c #F96F6F",
"L  c #EC7373",
"P  c #E87A7A",
"I  c #F97373",
"U  c #F57B7B",
"Y  c #F97F7F",
"T  c #037CE4",
"R  c #0C81E5",
"E  c #1485E6",
"W  c #1887E6",
"Q  c #1988E7",
"!  c #1585E8",
"~  c #1886E8",
"^  c #1D8AE8",
"/  c #2D8FE7",
"(  c #238DE9",
")  c #2B8FEA",
"_  c #338FE6",
"`  c #2790EB",
"'  c #2B91EB",
"]  c #3395EC",
"[  c #3897ED",
"{  c #3798ED",
"}  c #3C9AED",
"|  c #2596F1",
" . c #2D98F2",
".. c #259BF9",
"X. c #2A9DF9",
"o. c #349AF1",
"O. c #3B9DF1",
"+. c #2DA2FD",
"@. c #3CA1F3",
"#. c #36A5FC",
"$. c #39A5FB",
"%. c #35A9FF",
"&. c #429DED",
"*. c #47A0EE",
"=. c #4BA2EE",
"-. c #54A6EF",
";. c #54A8EF",
":. c #5EABEF",
">. c #5DACF0",
",. c #62AEEF",
"<. c #65AFF0",
"1. c #67B1F1",
"2. c #6BB2F1",
"3. c #73B6F1",
"4. c #7DBCF3",
"5. c #ED8686",
"6. c #F38B8B",
"7. c #FA8E8E",
"8. c #F59090",
"9. c #FA9191",
"0. c #EEA1A1",
"q. c #F9A6A6",
"w. c #F8AEAF",
"e. c #F3B3B3",
"r. c #FAB3B3",
"t. c #83BFF3",
"y. c #8BC3F4",
"u. c #91C6F4",
"i. c #95C9F5",
"p. c #9CCCF6",
"a. c #A2CEF6",
"s. c #A5D0F6",
"d. c #ABD3F7",
"f. c #ADD5F8",
"g. c #B6D9F8",
"h. c #BBDCF9",
"j. c #FCC4C4",
"k. c #FCCACA",
"l. c #FBDCDC",
"z. c #C1DFF9",
"x. c #C5E1F9",
"c. c #CDE5FA",
"v. c #D5E9FB",
"b. c #DCEDFC",
"n. c #FCE3E3",
"m. c #FBEBEB",
"M. c #E1EFFC",
"N. c #E4F1FD",
"B. c #ECF5FD",
"V. c #FEF1F1",
"C. c #F1F7FE",
"Z. c #F5FAFE",
"A. c #FEFFFF",
"S. c None",
/* pixels */
"S.S.S.S.S.S.S.S.S.S.S.S.S.S.S.S.S.S.S.S.S.S.S.S.S.S.S.S.S.S.S.S.S.S.S.S.S.S.S.S.S.S.S.S.S.S.S.S.S.S.S.S.S.S.S.S.S.S.S.S.S.S.S.S.",
"S.S.S.S.S.S.S.S.S.S.S.S.S.S.S.S.S.S.S.S.S.S.S.S.S.S.S.S.S.S.S.S.S.S.S.S.S.S.S.S.S.S.S.S.S.S.S.S.S.S.S.S.S.S.S.S.S.S.S.S.S.S.S.S.",
"S.S.S.S.S.S.S.S.S.S.S.S.S.S.S.S.S.S.S.S.S.S.S.S.S.S.S.S.S.S.S.S.S.S.S.S.S.S.S.S.S.S.S.S.S.S.S.S.S.S.S.S.S.S.S.S.S.S.S.S.S.S.S.S.",
"S.S.S.S.S.S.S.S.S.S.S.S.S.S.S.S.S.S.S.S.S.S.S.S.S.S.S.S.S.S.S.S.S.S.S.S.S.S.S.S.S.S.S.S.S.S.S.S.S.S.S.S.S.S.S.S.S.S.S.S.S.S.S.S.",
"S.S.S.S.S.S.S.S.S.S.S.S.S.S.S.S.S.S.S.S.S.S.S.S.S.S.S.S.S.S.S.S.S.S.S.S.S.S.S.S.S.S.S.S.S.S.S.S.S.S.S.S.S.S.S.S.S.S.S.S.S.S.S.S.",
"S.S.S.S.S.S.S.S.S.S.S.S.S.S.S.S.S.S.S.S.S.S.S.S.S.S.S.S.S.S.S.S.S.S.S.S.S.S.S.S.S.S.S.S.y e w w e S.S.S.S.S.S.S.S.S.S.S.S.S.S.S.",
"S.S.S.S.S.S.S.S.S.S.S.S.S.S.S.S.S.S.S.S.S.S.S.S.S.S.S.S.S.S.S.S.S.S.S.S.S.S.S.r e w w w w w s f w w 0 S.S.S.S.S.S.S.S.S.S.S.S.S.",
"S.S.S.S.S.S.S.S.S.S.S.S.S.S.S.S.S.S.S.S.S.S.S.S.S.S.S.S.S.S.S.S.S.S.e e w q w w w q q w q w r.A.k.H w e S.S.S.S.S.S.S.S.S.S.S.S.",
"S.S.S.S.S.S.S.S.S.S.S.S.S.S.S.S.S.S.S.S.S.S.S.S.S.S.S.S.S.S.S.S.S.S.e w q q B 7.I b w q q q n j.A.A.K q q S.S.S.S.S.S.S.S.S.S.S.",
"S.S.S.S.S.S.S.S.S.S.S.S.S.S.S.S.S.S.S.S.S.S.S.S.S.S.S.S.S.S.S.S.e S.S.8 w q Y A.A.A.9.r q w q q n S z q q w 0 S.S.S.S.S.S.S.S.S.",
"S.S.S.S.S.S.S.S.S.S.S.S.S.S.S.S.S.S.S.S.S.S.S.S.S.S.S.S.S.S.S.8 q q S.S.u q w G j.V.n.l q q q q q q q q q q q q S.S.S.S.S.S.S.S.",
"S.S.S.S.S.S.S.S.S.S.S.S.S.S.S.S.S.S.S.S.S.S.S.S.S.S.S.S.S.S.S.8 6 q q t S.S.6 6 6 d a q 6 q 6 q q 6 q 6 q 6 q q 6 8 S.S.S.S.S.S.",
"S.S.S.S.S.S.S.S.S.S.S.S.S.S.S.S.S.S.S.S.S.S.S.S.S.S.S.S.S.S.S.q q 6 6 q 8 S.S.8 q 6 6 q 6 6 6 6 6 6 q 6 6 6 S 6.V 8 6 S.S.S.S.S.",
"S.S.S.S.S.S.S.S.S.S.S.S.S.S.S.S.S.S.S.S.S.S.S.S.S.S.S.S.S.S.i 6 6 6 6 6 6 8 S.S.t 6 q 6 q 6 6 6 6 6 6 6 6 6 q.A.A.k.b 6 9 S.S.S.",
"S.S.S.S.S.S.S.S.S.S.S.S.S.S.S.S.S.S.S.S.S.S.S.S.S.S.S.S.S.S.9 6 6 6 6 6 6 6 6 2 S.S.6 6 6 6 p U U B 6 6 6 6 0 U l.A.w.6 6 8 S.S.",
"S.S.S.S.S.S.S.S.S.S.S.S.S.S.S.S.S.S.S.S.S.S.S.S.S.S.S.S.S.S.6 6 6 6 6 6 6 6 6 6 9 S.S.9 6 6 V A.A.A.r.j 6 6 5 6 0 c p 6 6 6 6 S.",
"S.S.S.S.S.S.S.S.S.S.S.S.S.S.S.S.S.S.S.S.S.S.S.S.S.S.S.S.S.S.6 5 5 6 6 6 6 6 6 5 6 8 S.S.t 6 6 J n.A.A.8.6 5 6 5 6 6 6 5 5 9 S.S.",
"S.S.S.S.S.S.S.S.S.S.S.S.S.S.S.S.S.S.S.S.S.S.S.S.S.S.S.S.S.2 6 5 5 5 5 5 5 5 5 5 5 5 6 S.S.S.5 5 u V D j 5 5 5 6 5 7 9 S.S.S.S.9 ",
"S.S.S.S.S.S.S.S.S.S.S.S.S.S.S.S.S.S.S.S.S.S.S.S.S.S.S.S.S.7 6 5 5 6 6 5 5 5 5 5 5 5 5 5 = S.S.7 5 5 5 5 6 5 7 = S.S.S.S.7 5 5 7 ",
"S.S.S.S.S.S.S.S.S.S.S.S.S.S.S.S.S.S.S.S.S.S.S.S.S.S.S.S.S.> = 6 6 6 6 6 5 5 5 5 5 5 5 5 5 = S.S.> 5 5 & > S.S.S.S.& 5 5 5 5 5 S.",
"S.S.S.S.S.S.S.S.S.S.S.S.S.S.S.S.S.S.&.} &.S.S.S.S.S.S.S.S.S.S.S.S.S.S.S.7 5 5 5 5 N Z $ 5 5 5 S.S.S.S.S.S.S.& $ 5 5 $ 5 5 5 * S.",
"S.S.S.S.S.S.S.S.S.S.S.S.S.S.S.S.{ [ *.;.=.&.&.&.&.&.} [ o.O.@.$.#.%.%.S.S.: 5 5 Z A.A.6.$ 5 $ & S.S.S.= $ 5 5 5 5 $ 5 5 5 5 S.S.",
"S.S.S.S.S.S.S.S.S.S.S.S.S.S.O.} 1.g.N.Z.y.[ &.&.{ } ;.t.a.4.} &.&.&.S.S.S.S.= $ 6.A.A.A.k $ $ $ S.S.& 5 $ $ 5 $ $ $ 5 $ $ & S.S.",
"S.S.S.S.S.S.S.S.S.S.S.S.S.&.[ 4.A.A.c.4.} O.&.[ ,.x.A.A.A.i.{ } &.S.S.&.O.S.S.$ L A.A.A.A $ $ & S.: $ $ $ $ $ $ $ $ $ $ $ S.S.S.",
"S.S.S.S.S.S.S.S.S.S.S.&.} &.} -.>.=.&.=.&.&.} [ p.B.c.s.>.{ } S.S.S.} &.} @.S.5 4 n.A.A.M $ $ 1 S.& $ $ $ $ $ $ $ $ $ $ $ S.S.S.",
"S.S.S.S.S.S.S.S.S.} } } } &.} [ 2.h.B.A.i.] } &.} &.{ ] [ &.S.S.} } &.} } #.S.$ $ x e.5.& # $ S.S.$ $ $ $ $ # # $ $ # $ , S.S.S.",
"S.S.S.S.S.S.S.} ] ] [ [ } } [ s.A.A.M.i.&.} &.} } [ } } S.S.S.} &.} } } } $.S.* $ # # # # $ * S.* # $ # # # v h # # $ $ S.S.S.S.",
"S.S.S.S.S.S.[ { 3.d.z.4.] } [ 1.4.;.[ ) ] } } } } } } S.S.} } } { [ ] ] } [ S.S.$ # # # # $ S.S.$ # # # # P A.F # # # * S.S.S.S.",
"S.S.S.S.} [ 2.b.A.A.v.>.] [ [ ` } y.g.v.y.] { } } S.S.S.{ } [ } ] ;.g.y.[ { o.S.$ # # # # # S.g # # # # C A.m.3 # # # S.S.S.S.S.",
"S.S.{ { { ] i.c.f.2.[ ] { [ [ u.Z.Z.A.B.3.] [ [ S.S.{ [ { { o.[ } b.A.A.:.] +.S.$ # # # # ; S.% # # # % l.A.m # # # - S.S.S.S.S.",
"S.[ [ [ [ [ ] ' ) ' [ [ [ ] &.v.N.h.y.&.) [ S.S.S.[ [ [ { [ [ ' 2.A.A.A.y.' +.S.# # # # # S.S.# o # # * 0.m o # # # S.S.S.S.S.S.",
"S.S.S.S.[ ] [ ] [ [ [ ] [ [ ] [ { ] ' ] [ S.S.[ [ [ [ ] [ [ [ ) t.A.A.A.t.) o.S.S.# o o % S.- # o # o o o o # o o + S.S.S.S.S.S.",
"{ ] S.S.S.S.S.S.S.S.S.] ] [ [ ] ] [ [ S.S.S.[ ] ] ] ] [ ] ] [ ) 1.A.A.A.;.' ] o.S.# o o < S.o o o o o o o o o o o S.S.S.S.S.S.S.",
"] ] ] ] ] ] ] ] S.S.S.S.S.S.S.S.S.S.S.S.] ] ] ] ' ` ) ] ] ] ] ] [ h.Z.y.) ] ] X.S.# o o S.S.o o o o o o o o o o + S.S.S.S.S.S.S.",
"S.] ] ' ] ] ' ] ] ] ] ' ] ' ] S.S.S.S.] ] ] ] ' [ t.2.' ] ' ' ] ' ] =.' ' ] ' X.S.# o O S.O o o X o o o o o o O S.S.S.S.S.S.S.S.",
"S.] ] } ' ' ] [ ' ] ] ] ] ] ] ' ] S.S.' o.' ) ] z.A.Z.2.` ] ] ] ] ' ) ] ] ] ]  .S.S.o S.S.o o o o X o o o O S.S.S.S.S.S.S.S.S.S.",
"S.` >.C.d.' ) ' { ] ` ' ' ] ) ) ' ] S.' ] ' ( 3.A.A.A.g.( ] ) ' ] ' ] ' ' ] '  ._ S.o S.. o X X X X X O S.S.S.S.S.S.S.S.S.S.S.S.",
"S.S.<.A.A.p.^ } M.v.-.( ) ) [ ) ) ' S.S.) ] ^ s.A.A.A.z.( ] ' ] ' ] ) ] ] ' ' ' ..S.+ S.O X X o X O S.S.S.S.S.S.S.S.S.S.S.S.S.S.",
"S.S.[ M.A.A.=.&.A.A.N.&.^ :.N.h.&.( S.S.) ) ( a.A.A.A.a.^ ) / ] ) _ _ ) ) ) ' ' ..S.S.S.X X X @ S.S.S.S.S.S.S.S.S.S.S.S.S.S.S.S.",
"S.S.( 2.A.A.t.~ z.A.A.d.E y.A.A.v.] ) S.) ) ( <.A.A.B.&.) ) ) ' ) ) ) / ( ) ( ) ' S.S.O X   S.S.S.S.S.S.S.S.S.S.S.S.S.S.S.S.S.S.",
"S.S.S.( 3.v.2.! ;.Z.A.C./ =.Z.A.A.p.^ S.S.' ' ` 4.d.-.^ ) ) ' ' ) ' ' ( =.x.p.) ` ' S.@ S.S.S.S.S.S.S.S.S.S.S.S.S.S.S.S.S.S.S.S.",
"S.S.S.( ^ ' ` ' ^ 1.N.v.' ^ d.A.A.M.' S.S.) ) ) ^ ^ ( / ` ` ` ` ` ` | ) c.A.A.;.^ | S.S.S.S.S.S.S.S.S.S.S.S.S.S.S.S.S.S.S.S.S.S.",
"S.S.S.) ' ` ` ` ` ^ ] { ` ` / h.A.B.[ ` S.` ( ` ` ` ` / ` ) ` ` ` ) ^ ;.A.A.A.2.^ ) S.S.S.S.S.S.S.S.S.S.S.S.S.S.S.S.S.S.S.S.S.S.",
"S.S.S.S.) ` ` ( ` / ( ( ` ` ( / 2.:.( ` S.` ) ` ` ` ` ` ` ' / ` ` ) ^ 1.A.A.A.-.^ ) S.S.S.S.S.S.S.S.S.S.S.S.S.S.S.S.S.S.S.S.S.S.",
"S.S.S.S.( ( ` ) ` ` ( ` / ( ( ( W ^ ( ` S.S.` ` ( ( ( / ` ( ( ( ( ` ^ &.A.A.x.( ` ( S.S.S.S.S.S.S.S.S.S.S.S.S.S.S.S.S.S.S.S.S.S.",
"S.S.S.S.S.( ( ( ( ( ( ( ( ( ( ( ( ( ( ( ` S.( ( ( ( ( ( ( ^ ( ( ( ( ( ~ 3.p.[ ^ ( ` S.S.S.S.S.S.S.S.S.S.S.S.S.S.S.S.S.S.S.S.S.S.",
"S.S.S.S.S.^ ^ ^ E ^ ( ( ( ( ( ( ( ( ( ( ( S.( ( ( ( ( ^ ( &.( ^ ( ^ ( ( E E ~ ( ( S.S.S.S.S.S.S.S.S.S.S.S.S.S.S.S.S.S.S.S.S.S.S.",
"S.S.S.S.S.W *.z.3.W ( ^ E W ( ^ ( ( ^ ( ( S.S.^ ( ( ^ ` x.A.a.^ ( ( ( ( ( ( ( ( S.S.S.S.S.S.S.S.S.S.S.S.S.S.S.S.S.S.S.S.S.S.S.S.",
"S.S.S.S.S.S.;.A.A.3.E ( :.*.E ( ( ^ ^ ^ ( S.S.( ( ( E u.A.A.Z.} W ( ( ^ ^ ( ( S.S.S.S.S.S.S.S.S.S.S.S.S.S.S.S.S.S.S.S.S.S.S.S.S.",
"S.S.S.S.S.S.^ v.A.C.' / Z.Z.3.R ( Q W E W ^ S.^ ^ W ^ v.A.A.A.&.E ^ ^ ^ ^ ^ S.S.S.S.S.S.S.S.S.S.S.S.S.S.S.S.S.S.S.S.S.S.S.S.S.S.",
"S.S.S.S.S.S.E =.Z.A.4.E b.A.Z.=.R &.h.4.W E S.S.^ W ( N.A.A.M.^ ^ ^ ^ ^ ^ S.S.S.S.S.S.S.S.S.S.S.S.S.S.S.S.S.S.S.S.S.S.S.S.S.S.S.",
"S.S.S.S.S.S.S.R ;.h.,.T 3.A.A.h.T 3.A.A.a.E S.S.W ^ E f.A.A.3.R ^ W ^ S.S.S.S.S.S.S.S.S.S.S.S.S.S.S.S.S.S.S.S.S.S.S.S.S.S.S.S.S.",
"S.S.S.S.S.S.S.^ R E E W W i.A.N.E } Z.A.A.2.R S.W Q E ' p.2.E Q ^ ^ S.S.S.S.S.S.S.S.S.S.S.S.S.S.S.S.S.S.S.S.S.S.S.S.S.S.S.S.S.S.",
"S.S.S.S.S.S.S.S.^ W W W W R ,.,.E R u.A.A.c.E S.S.^ W E R R W Q W S.S.S.S.S.S.S.S.S.S.S.S.S.S.S.S.S.S.S.S.S.S.S.S.S.S.S.S.S.S.S.",
"S.S.S.S.S.S.S.S.S.S.^ W ^ E R R W W W i.A.v.W S.S.W W W Q Q Q Q S.S.S.S.S.S.S.S.S.S.S.S.S.S.S.S.S.S.S.S.S.S.S.S.S.S.S.S.S.S.S.S.",
"S.S.S.S.S.S.S.S.S.S.S.S.S.W W Q W W W R &.[ E W S.^ W W Q W W S.S.S.S.S.S.S.S.S.S.S.S.S.S.S.S.S.S.S.S.S.S.S.S.S.S.S.S.S.S.S.S.S.",
"S.S.S.S.S.S.S.S.S.S.S.S.S.S.S.S.W W W E T E W W S.S.W W E W S.S.S.S.S.S.S.S.S.S.S.S.S.S.S.S.S.S.S.S.S.S.S.S.S.S.S.S.S.S.S.S.S.S.",
"S.S.S.S.S.S.S.S.S.S.S.S.S.S.S.S.S.S.S.E W W E E S.S.E E S.S.S.S.S.S.S.S.S.S.S.S.S.S.S.S.S.S.S.S.S.S.S.S.S.S.S.S.S.S.S.S.S.S.S.S.",
"S.S.S.S.S.S.S.S.S.S.S.S.S.S.S.S.S.S.S.S.S.S.E E E S.S.S.S.S.S.S.S.S.S.S.S.S.S.S.S.S.S.S.S.S.S.S.S.S.S.S.S.S.S.S.S.S.S.S.S.S.S.S.",
"S.S.S.S.S.S.S.S.S.S.S.S.S.S.S.S.S.S.S.S.S.S.S.S.S.S.S.S.S.S.S.S.S.S.S.S.S.S.S.S.S.S.S.S.S.S.S.S.S.S.S.S.S.S.S.S.S.S.S.S.S.S.S.S.",
"S.S.S.S.S.S.S.S.S.S.S.S.S.S.S.S.S.S.S.S.S.S.S.S.S.S.S.S.S.S.S.S.S.S.S.S.S.S.S.S.S.S.S.S.S.S.S.S.S.S.S.S.S.S.S.S.S.S.S.S.S.S.S.S.",
"S.S.S.S.S.S.S.S.S.S.S.S.S.S.S.S.S.S.S.S.S.S.S.S.S.S.S.S.S.S.S.S.S.S.S.S.S.S.S.S.S.S.S.S.S.S.S.S.S.S.S.S.S.S.S.S.S.S.S.S.S.S.S.S.",
"S.S.S.S.S.S.S.S.S.S.S.S.S.S.S.S.S.S.S.S.S.S.S.S.S.S.S.S.S.S.S.S.S.S.S.S.S.S.S.S.S.S.S.S.S.S.S.S.S.S.S.S.S.S.S.S.S.S.S.S.S.S.S.S.",
"S.S.S.S.S.S.S.S.S.S.S.S.S.S.S.S.S.S.S.S.S.S.S.S.S.S.S.S.S.S.S.S.S.S.S.S.S.S.S.S.S.S.S.S.S.S.S.S.S.S.S.S.S.S.S.S.S.S.S.S.S.S.S.S."
};
