/* XPM */
static char *Free_Converter_com_kingdice_pr2_21555402[] = {
/* columns rows colors chars-per-pixel */
"64 54 123 2 ",
"   c #9E0000",
".  c #A40000",
"X  c #AB0000",
"o  c #B30000",
"O  c #BC0000",
"+  c #B50A0A",
"@  c #BD0909",
"#  c #B11111",
"$  c #B91F1F",
"%  c #C40000",
"&  c #CB0000",
"*  c #C50909",
"=  c #CD0A0A",
"-  c #D00101",
";  c #CE1212",
":  c #CA1C1C",
">  c #D31313",
",  c #CB2323",
"<  c #C22B2B",
"1  c #D12121",
"2  c #D32929",
"3  c #CF3737",
"4  c #C43C3C",
"5  c #D03030",
"6  c #D13939",
"7  c #D83838",
"8  c #C74242",
"9  c #C34A4A",
"0  c #CF4C4C",
"q  c #D64242",
"w  c #D94747",
"e  c #D64C4C",
"r  c #DC4E4E",
"t  c #C75252",
"y  c #CE5353",
"u  c #CC5C5C",
"i  c #D35757",
"p  c #DE5353",
"a  c #DF5D5D",
"s  c #DC6464",
"d  c #DE6E6E",
"f  c #D77575",
"g  c #D77E7E",
"h  c #DC7A7B",
"j  c #E06161",
"k  c #E37777",
"l  c #E47A7A",
"z  c #245792",
"x  c #265893",
"c  c #2C5D96",
"v  c #306097",
"b  c #34639A",
"n  c #39669C",
"m  c #3D699E",
"M  c #3769A0",
"N  c #3E6CA0",
"B  c #406C9F",
"V  c #426EA0",
"C  c #4670A2",
"Z  c #4B75A5",
"A  c #4F78A7",
"S  c #5078A7",
"D  c #537BA9",
"F  c #597FAC",
"G  c #5C82AD",
"H  c #6084AF",
"J  c #6286B0",
"K  c #6689B2",
"L  c #6A8DB5",
"P  c #6F90B7",
"I  c #7091B7",
"U  c #7394B9",
"Y  c #7C9ABD",
"T  c #809DBF",
"R  c #DC8080",
"E  c #DC8C8C",
"W  c #E58080",
"Q  c #E48989",
"!  c #E79797",
"~  c #E99F9F",
"^  c #EBA1A1",
"/  c #E6ADAD",
"(  c #EFB7B7",
")  c #F0B2B2",
"_  c #819EC0",
"`  c #86A2C3",
"'  c #8AA5C4",
"]  c #8EA8C7",
"[  c #90AAC7",
"{  c #93ACC9",
"}  c #9CB3CD",
"|  c #A4B9D2",
" . c #AABED5",
".. c #AEC0D6",
"X. c #B0C2D7",
"o. c #B3C5D9",
"O. c #B7C8DB",
"+. c #BCCBDD",
"@. c #EEC9C9",
"#. c #F5CDCD",
"$. c #F3D2D2",
"%. c #F6DCDC",
"&. c #F9DFDF",
"*. c #C4D1E1",
"=. c #CAD6E5",
"-. c #CDD9E6",
";. c #D3DDE9",
":. c #D7E0EB",
">. c #DBE3ED",
",. c #E0E7EF",
"<. c #F7E0E0",
"1. c #F9E7E7",
"2. c #FAEDED",
"3. c #E0E7F0",
"4. c #E6ECF2",
"5. c #E9EEF4",
"6. c #EDF1F6",
"7. c #F0F3F7",
"8. c #FCF4F4",
"9. c #F3F5F9",
"0. c #F7F9FB",
"q. c #FEFEFE",
"w. c None",
/* pixels */
"w.w.w.w.w.w.w.w.w.w.w.w.w.w.w.w.w.w.w.w.w.w.w.w.w.w.w.w.w.w.w.w.w.w.w.w.w.w.w.w.w.w.w.w.- - - - - w.w.w.w.w.w.w.w.w.w.w.w.w.w.w.",
"w.w.w.w.w.w.w.w.w.w.w.w.w.w.w.w.w.w.w.w.w.w.w.w.w.w.w.w.w.w.w.w.w.w.w.w.w.w.w.- - - - - - & > > - - w.w.w.w.w.w.w.w.w.w.w.w.w.w.",
"w.w.w.w.w.w.w.w.w.w.w.w.w.w.w.w.w.w.w.w.w.w.w.w.w.w.w.w.w.w.w.w.w.w.& - & - & & & - - - - = ^ &.) p = - w.w.w.w.w.w.w.w.w.w.w.w.",
"w.w.w.w.w.w.w.w.w.w.w.w.w.w.w.w.w.w.w.w.w.w.w.w.w.w.w.w.w.w.w.w.w.w.& & & - 7 k j 2 & & & & r #.q.8.a - & w.w.w.w.w.w.w.w.w.w.w.",
"w.w.w.w.w.w.w.w.w.w.w.w.w.w.w.w.w.w.w.w.w.w.w.w.w.w.w.w.w.w.w.w.& w.w.& & & W q.q.1.l = & & & ; w j 2 & & & & w.w.w.w.w.w.w.w.w.",
"w.w.w.w.w.w.w.w.w.w.w.w.w.w.w.w.w.w.w.w.w.w.w.w.w.w.w.w.w.w.w.& & & w.w.& & ; k #.2.$.1 % & & & & & & & & & & & w.w.w.w.w.w.w.w.",
"w.w.w.w.w.w.w.w.w.w.w.w.w.w.w.w.w.w.w.w.w.w.w.w.w.w.w.w.w.w.w.& & % & % w.w.& % ; 2 1 & & % & & & & & & % & % & & & w.w.w.w.w.w.",
"w.w.w.w.w.w.w.w.w.w.w.w.w.w.w.w.w.w.w.w.w.w.w.w.w.w.w.w.w.w.w.% % & % & % w.w.& % % % & % & % & % % % % & % e d q * % w.w.w.w.w.",
"w.w.w.w.w.w.w.w.w.w.w.w.w.w.w.w.w.w.w.w.w.w.w.w.w.w.w.w.w.w.% % % % & % % % w.w.% % & % % % % % % % % % % * ~ q.q.( 5 % % w.w.w.",
"w.w.w.w.w.w.w.w.w.w.w.w.w.w.w.w.w.w.w.w.w.w.w.w.w.w.w.w.w.w.% % % % % % % % % % w.w.% % % % : d d 6 * % % % : Q %.8.! % % % w.w.",
"w.w.w.w.w.w.w.w.w.w.w.w.w.w.w.w.w.w.w.w.w.w.w.w.w.w.w.w.w.w.% % % % % % % % % % % w.w.% % % e q.q.2.^ : % % % % : 3 : % % % % w.",
"w.w.w.w.w.w.w.w.w.w.w.w.w.w.w.w.w.w.w.w.w.w.w.w.w.w.w.w.w.w.O % O % O % O % O % O % w.w.O % * h <.q.q.h O % % O % % O % O % w.w.",
"w.w.w.w.w.w.w.w.w.w.w.w.w.w.w.w.w.w.w.w.w.w.w.w.w.w.w.w.w.O % % % O % O % O % O % O O w.w.w.% O , i s , % O % % O % O w.w.w.w.% ",
"w.w.w.w.w.w.w.w.w.w.w.w.w.w.w.w.w.w.w.w.w.w.w.w.w.w.w.w.w.O O O O O O % O O O O O O % O O w.w.O O O O O O O O O w.w.w.w.O O O O ",
"w.w.w.w.w.w.w.w.w.w.w.w.w.w.w.w.w.w.w.w.w.w.w.w.w.w.w.w.w.% O O O O O O O O O O O O O O O O w.w.O O O O O w.w.w.w.O O O O O O w.",
"w.w.w.w.w.w.w.w.w.w.w.w.w.w.w.w.w.w.V B V w.w.w.w.w.w.w.w.w.w.w.w.w.w.w.O O O O @ 0 0 @ O O O w.w.w.w.w.w.w.O O O O O O O O O w.",
"w.w.w.w.w.w.w.w.w.w.w.w.w.w.w.w.m V S F Z B B B C B B B m B V V V V V w.w.O O o i 8.q.R O O O o w.w.w.O O O o O O o O o O O w.w.",
"w.w.w.w.w.w.w.w.w.w.w.w.w.w.V C I o.>.3.T m B C m C J ` } U B C V V w.w.w.w.O O E q.q.1.< O o O w.w.O o o O O o o O O o o O w.w.",
"w.w.w.w.w.w.w.w.w.w.w.w.w.B m _ 5.7.=.` Z B B B L *.9.q.9.[ B B N w.w.B V w.w.o f q.q.q.y o O o w.O o o O o o o o O o O o w.w.w.",
"w.w.w.w.w.w.w.w.w.w.w.B B B B D L G G F Z B B B } >.-.| K B B w.w.w.B B N N w.o < %.q.8.8 o o o w.o o o o o o o o o o o o w.w.w.",
"w.w.w.w.w.w.w.w.w.m B V B B B C Y *.3.7.' m B B C Z C m m B w.w.N V B m B N w.o o 8 / g + o o w.w.o o o o o o o o o o o o w.w.w.",
"w.w.w.w.w.w.w.m m m B m m m B | 0.q.>.{ Z B B m m B m B w.w.w.m N m m B B m w.o o X + o o o X w.o o o o X + 4 $ o o X o w.w.w.w.",
"w.w.w.w.w.w.m Z Y  .*.Y m m m L Y K Z B m B m m m m B w.w.m m m m m m m m m w.w.o o X o o X w.w.X o o o + g 2.u X o X o w.w.w.w.",
"w.w.w.w.m m U >.q.0.=.J m m m m G [ +.=.` m m m m w.w.w.m m m m m L O.' N m N w.X X X X X o w.X X X X X u 0.$.$ X X o w.w.w.w.w.",
"w.w.m m m m [ *.| I C m m m B } 6.q.q.>.I m m m w.w.m m m n m n Z :.q.9.K n m w.X X X X X o w.X X X X # @.2.t X X X X w.w.w.w.w.",
"w.m m n m m m m n n m n m n S *.:.*.] S n m w.w.w.m m n m m m n Y q.q.q.' n m w.X X X X X w.w.X X X X # E 9 X X X X w.w.w.w.w.w.",
"w.w.w.w.m n m n n m n n m n m V C m n n m w.w.n n m n m m n n n ' q.q.q._ n n w.w.X X X X w.X X X X X X X . X . X X w.w.w.w.w.w.",
"n n w.w.w.w.w.w.w.w.w.n n n n n n n n w.w.w.n n n n n n n n n b I q.q.5.G n n M w.X . X . w.X . X . . X . X X X X w.w.w.w.w.w.w.",
"n n n n n n n n n w.w.w.w.w.w.w.w.w.w.w.n n n n n b n n n n n n C O.5.' n n n n w.. X . w.. . . . X . . X . X . . w.w.w.w.w.w.w.",
"n n n n b n n n n n n n n n n w.w.w.w.n n n n n Z ' U m n n b n n V Z m n n n n w.X . . w.. . . . . X . . . . . w.w.w.w.w.w.w.w.",
"w.n m S m b n n b n n n n n n b n w.w.n n n b C =.q.0.U v n n n n b v n n b v n w.. . w.w.. . . . . . . . . w.w.w.w.w.w.w.w.w.w.",
"w.v P 4. .C v n Z C v n v n v n n b w.n v n v _ q.q.q.X.n v b n v n n n v n b n b w.. w.. . . .   . . . w.w.w.w.w.w.w.w.w.w.w.w.",
"w.w.I q.q.| n A >.;.K n n n Z m v b w.w.n v v  .q.q.q.O.n b b b n v n v n b b b b w.. w..     .   . w.w.w.w.w.w.w.w.w.w.w.w.w.w.",
"w.w.C >.q.7.G S 6.q.3.D c L 3.+.F n w.w.v n b | q.q.q.{ v b b n v n v n v n b b b w.w.w..     . w.w.w.w.w.w.w.w.w.w.w.w.w.w.w.w.",
"w.w.v U 9.q.` n *.q.q. .v ` q.q.;.Z v w.b b v I 0.q.>.S v b b v n v n b v N n v n w.w.      w.w.w.w.w.w.w.w.w.w.w.w.w.w.w.w.w.w.",
"w.w.w.n U *.L v K 6.q.>.N G 9.q.q.} v w.w.v v n Y } G v b v b b v v v v K -.| m v v w.w.w.w.w.w.w.w.w.w.w.w.w.w.w.w.w.w.w.w.w.w.",
"w.w.w.v v n v v v I :.+.m b  .q.q.>.V w.w.v v v v v v v v v v v v v v V ;.q.0.J v v w.w.w.w.w.w.w.w.w.w.w.w.w.w.w.w.w.w.w.w.w.w.",
"w.w.w.v v v v v v v N V v c N O.q.:.V c w.v v v v v v v v v v v v v c J 0.q.q.I c v w.w.w.w.w.w.w.w.w.w.w.w.w.w.w.w.w.w.w.w.w.w.",
"w.w.w.w.v v c v v v c c v v v n L G v v w.v v v v v v v v v c v v v c P q.q.7.F c v w.w.w.w.w.w.w.w.w.w.w.w.w.w.w.w.w.w.w.w.w.w.",
"w.w.w.w.c v v v v c v v v v c c c c v c w.w.v c v v v v c v v v v v c A 5.q.o.n c v w.w.w.w.w.w.w.w.w.w.w.w.w.w.w.w.w.w.w.w.w.w.",
"w.w.w.w.w.v c c c v c v c c c v c c c c c w.v c v c v v c c v v v v c v I { C c c v w.w.w.w.w.w.w.w.w.w.w.w.w.w.w.w.w.w.w.w.w.w.",
"w.w.w.w.w.v c n c c c c c c c c c c c c c w.c c c c c x V K m c c c c c c x c v c w.w.w.w.w.w.w.w.w.w.w.w.w.w.w.w.w.w.w.w.w.w.w.",
"w.w.w.w.w.x D -.' v c v x x v c c c x c c w.w.c c c c Z ;.q...v c c c c c c c v w.w.w.w.w.w.w.w.w.w.w.w.w.w.w.w.w.w.w.w.w.w.w.w.",
"w.w.w.w.w.w.J 0.0.' c v U K c c c c c c c c w.c c x c | q.q.5.C x c c x c c x w.w.w.w.w.w.w.w.w.w.w.w.w.w.w.w.w.w.w.w.w.w.w.w.w.",
"w.w.w.w.w.w.m =.q.5.Z C 5.9.' c c c b x x c w.x x c n ;.q.q.5.Z x c c c x c w.w.w.w.w.w.w.w.w.w.w.w.w.w.w.w.w.w.w.w.w.w.w.w.w.w.",
"w.w.w.w.w.w.z G 5.q.Y b ;.q.9.L z J -.} n x w.w.c x n >.q.q.-.b c x x c w.w.w.w.w.w.w.w.w.w.w.w.w.w.w.w.w.w.w.w.w.w.w.w.w.w.w.w.",
"w.w.w.w.w.w.w.x G ..G x Y 0.q.O.x _ q.q.o.v w.w.x c c  .q.9.I x x c x w.w.w.w.w.w.w.w.w.w.w.w.w.w.w.w.w.w.w.w.w.w.w.w.w.w.w.w.w.",
"w.w.w.w.w.w.w.x x x x x v { 0.;.v A 5.q.q.T x w.x x x N ` K c x x x w.w.w.w.w.w.w.w.w.w.w.w.w.w.w.w.w.w.w.w.w.w.w.w.w.w.w.w.w.w.",
"w.w.w.w.w.w.w.w.x x x x x c G G x x [ q.q.*.v w.w.x x x z z x x x w.w.w.w.w.w.w.w.w.w.w.w.w.w.w.w.w.w.w.w.w.w.w.w.w.w.w.w.w.w.w.",
"w.w.w.w.w.w.w.w.w.w.x x x x z z x z v [ 5.O.v w.w.x x x x x x x w.w.w.w.w.w.w.w.w.w.w.w.w.w.w.w.w.w.w.w.w.w.w.w.w.w.w.w.w.w.w.w.",
"w.w.w.w.w.w.w.w.w.w.w.w.w.x z z x x x x V n z x w.x x x x x x w.w.w.w.w.w.w.w.w.w.w.w.w.w.w.w.w.w.w.w.w.w.w.w.w.w.w.w.w.w.w.w.w.",
"w.w.w.w.w.w.w.w.w.w.w.w.w.w.w.w.z z z z z z z z w.w.z z z w.w.w.w.w.w.w.w.w.w.w.w.w.w.w.w.w.w.w.w.w.w.w.w.w.w.w.w.w.w.w.w.w.w.w.",
"w.w.w.w.w.w.w.w.w.w.w.w.w.w.w.w.w.w.w.z z z z x w.w.z z w.w.w.w.w.w.w.w.w.w.w.w.w.w.w.w.w.w.w.w.w.w.w.w.w.w.w.w.w.w.w.w.w.w.w.w.",
"w.w.w.w.w.w.w.w.w.w.w.w.w.w.w.w.w.w.w.w.w.w.z z z w.w.w.w.w.w.w.w.w.w.w.w.w.w.w.w.w.w.w.w.w.w.w.w.w.w.w.w.w.w.w.w.w.w.w.w.w.w.w."
};
