/* XPM */
static char *_be4d644d82a4e45b7c44b57f9c97489[] = {
/* columns rows colors chars-per-pixel */
"16 16 118 2 ",
"   c #AC2136",
".  c #C80001",
"X  c #C90001",
"o  c #CC0000",
"O  c #CB0508",
"+  c #CA070E",
"@  c #D00000",
"#  c #DC0000",
"$  c #D3070B",
"%  c #D80708",
"&  c #D50E15",
"*  c #C5121C",
"=  c #D41314",
"-  c #D5111D",
";  c #D51B1F",
":  c #E00000",
">  c #E10104",
",  c #EB0000",
"<  c #EF0000",
"1  c #E80405",
"2  c #E20609",
"3  c #EB0409",
"4  c #E3080A",
"5  c #E20B0D",
"6  c #E5080C",
"7  c #E6080C",
"8  c #EF0A0D",
"9  c #F11013",
"0  c #F41C1B",
"q  c #DD1E21",
"w  c #E01F23",
"e  c #EF1F20",
"r  c #E02E2E",
"t  c #F52627",
"y  c #F42B2A",
"u  c #F13636",
"i  c #F13639",
"p  c #F1403F",
"a  c #AD3D57",
"s  c #87416B",
"d  c #EC4743",
"f  c #E94D4E",
"g  c #E1504F",
"h  c #F15555",
"j  c #F85B5A",
"k  c #4974BD",
"l  c #6D6DA7",
"z  c #1384E6",
"x  c #1485E7",
"c  c #1686E7",
"v  c #1988E7",
"b  c #1B89E7",
"n  c #1C89E9",
"m  c #1D8AE8",
"M  c #218BEA",
"N  c #248EE9",
"B  c #278FE9",
"V  c #248EEB",
"C  c #268EEB",
"Z  c #2991E8",
"A  c #2990E9",
"S  c #2A90EA",
"D  c #2E93EA",
"F  c #2F93EA",
"G  c #2A91EC",
"H  c #3094EC",
"J  c #3394EC",
"K  c #3596EC",
"L  c #3496ED",
"P  c #3897ED",
"I  c #3F9CEB",
"U  c #3999ED",
"Y  c #3B99EC",
"T  c #3F9BEC",
"R  c #3F9BED",
"E  c #3C9BEE",
"W  c #249AF8",
"Q  c #2AA7FF",
"!  c #6692D3",
"~  c #409CED",
"^  c #469FEC",
"/  c #639FE1",
"(  c #4BA0ED",
")  c #4AA1EE",
"_  c #4DA3ED",
"`  c #4CA2EE",
"'  c #4CA3EE",
"]  c #4DA3EE",
"[  c #51A4EF",
"{  c #57A7EE",
"}  c #57A8EE",
"|  c #59A8EF",
" . c #45A4F3",
".. c #5DAAF0",
"X. c #5FACF0",
"o. c #61ADEF",
"O. c #63AEEF",
"+. c #61ADF1",
"@. c #62ADF0",
"#. c #6AB1F1",
"$. c #63B9FB",
"%. c #70B5F0",
"&. c #77B9F2",
"*. c #76B8F3",
"=. c #74B9F4",
"-. c #7DBBF2",
";. c #FA8F8A",
":. c #83BEF3",
">. c #84BFF4",
",. c #85C0F3",
"<. c #8DC3F5",
"1. c #95C8F5",
"2. c #A4D0F6",
"3. c #A1D7FE",
"4. c #ABDBFF",
"5. c #B0D7F7",
"6. c #CEE6FB",
"7. c None",
/* pixels */
"7.7.7.7.7.7.7.7.7.7.7.7.7.7.7.7.",
"7.7.7.7.7.7.7.7.7.7.9 t 7.7.7.7.",
"7.7.7.7.7.7.7.7.3 i j 0 y 8 7.7.",
"7.7.7.7.7.7.7.7.< 7 7 e p u h 7.",
"7.7.7.7.7.7.7.- 1 , > w f 4 5 2 ",
"7.7.7.7.*.) $./ 7.a ;.q 7.# : & ",
"7.7.| ` 2.` X. .Q l d ; $ r % 7.",
"7.[ @.` <.~ C K 4.! . + = g * 7.",
"U H M G 7.P @.K =.E   O o . 7.7.",
"..1.,.#.~ ` 6.F M W s @ 7.7.7.7.",
"7.~ O.:.*.C Y b E 3.k 7.7.7.7.7.",
"7.H A x b m B ( F | 7.7.7.7.7.7.",
"7.7.,.-.{ A ` 5.x 7.7.7.7.7.7.7.",
"7.7.b I %.O.x Z 7.7.7.7.7.7.7.7.",
"7.7.7.7.7.x 7.7.7.7.7.7.7.7.7.7.",
"7.7.7.7.7.7.7.7.7.7.7.7.7.7.7.7."
};
