/* XPM */
static char *_8d332c9ab5c4408cc7968b7f96db833[] = {
/* columns rows colors chars-per-pixel */
"32 32 25 1 ",
"  c #4E4F4F",
". c #505151",
"X c #555555",
"o c #555656",
"O c #555757",
"+ c #565757",
"@ c gray34",
"# c #555858",
"$ c #565858",
"% c #575858",
"& c #585858",
"* c #585959",
"= c #0679F5",
"- c #057AF5",
"; c #077AF4",
": c #077BF4",
"> c #067AF5",
", c #077AF5",
"< c #067BF5",
"1 c #077BF5",
"2 c #067AF6",
"3 c #077BF6",
"4 c #087AF3",
"5 c #097BF3",
"6 c None",
/* pixels */
"666666666666662;2266666666666666",
"6666666666222;;22;2;;36666666666",
"666666662;-;;2;-2-;2;-2-66666666",
"6666666;-;222;2;;;2;2-;;;6666666",
"666666;;2;---;2;-2;-2;-22;666666",
"66666;;;-;2;22;2-;2-2-;2;2;66666",
"66662-2;-2;2;-2;22;;;;--2;;26666",
"6662;;2-;2--;2;2;--2-22;;22;;666",
"663;;-22;;-2;6666666666666666666",
"662;2-;--2-;66666666666666666666",
"6;;22;-;2-2;66666666666666666666",
"62-;-;22;;;;66666666666666666666",
"62;2;2;--2;26666++++++++++++$$$6",
"6;2;-;2--;236666++++++++++++$$+6",
";2;222;;22;6666$+++++++++++++++$",
"2222;--2;--66666@@@@@@++++++++++",
"6666666666666666666666+++++++++$",
"6666666666666666666666++++++++& ",
"6666666666666666666666++++++++$6",
"6+$$$$$$$$66666$$$$$$$+++++++++6",
"6+++++++++6666&+++++++++++++++$6",
"66++++++++6666$$++++++++++++++66",
"66++++++++6666+++++++++++++++@66",
"66++++++++6666++++++++++++++&.66",
"666$+++++@6666++++++++++++++$666",
"6666+++++++$$$++++++++++++++6666",
"66666++++++++++++++++++++++66666",
"666666++++++++++++++++++++666666",
"6666666+++++++++++++++++&6666666",
"66666666++++++++++++++++66666666",
"66666666666$+++++++++66666666666",
"666666666666666++666666666666666"
};
