/* XPM */
static char *_2da3b8044a04a7dd0b975b1f5deaafe[] = {
/* columns rows colors chars-per-pixel */
"16 16 20 1 ",
"  c #545555",
". c #575654",
"X c #555656",
"o c #565757",
"O c gray34",
"+ c #595551",
"@ c #585654",
"# c #575758",
"$ c #565858",
"% c #575858",
"& c #067AF5",
"* c #077AF5",
"= c #067BF6",
"- c #087BF4",
"; c #057BF8",
": c #057BF9",
"> c #007CFF",
", c #017DFF",
"< c #007EFF",
"1 c None",
/* pixels */
"111111-&-&111111",
"1111&&&&&&&&1111",
"111&&&&&&&&&&111",
"11&&&&&::::&::11",
"1&&&&&1111111111",
"1&&&&&1111111111",
"-&&&&:11+....@.$",
",,>>,,11#$.##$.$",
"11111111111$### ",
"11111111111X.$$ ",
"1$#.#11#####$..1",
"1##$.11#.$.$X##1",
"11#.#11$$X##$$11",
"111$$.#.#$.$#111",
"1111##$XX$#.1111",
"111111$$.#111111"
};
