/* XPM */
static char *_2dd4ea2b43b4ddfbd7de9acf541de1a[] = {
/* columns rows colors chars-per-pixel */
"64 64 43 1 ",
"  c #505252",
". c #545555",
"X c #555555",
"o c #545656",
"O c #555656",
"+ c #565656",
"@ c #565757",
"# c gray34",
"$ c #565858",
"% c #575858",
"& c #575959",
"* c #585858",
"= c #585959",
"- c #5B5C5C",
"; c #0479F5",
": c #0679F4",
"> c #0679F5",
", c #057AF5",
"< c #067AF4",
"1 c #077AF4",
"2 c #077BF4",
"3 c #067AF5",
"4 c #077AF5",
"5 c #067BF5",
"6 c #077BF5",
"7 c #0579F6",
"8 c #0778F6",
"9 c #057AF6",
"0 c #067AF6",
"q c #077AF6",
"w c #067BF6",
"e c #077BF6",
"r c #077CF5",
"t c #077CF6",
"y c #0A79F1",
"u c #0A7AF1",
"i c #087AF3",
"p c #0A7BF2",
"a c #0C7BF1",
"s c #0879F5",
"d c #087BF4",
"f c #0A7DF4",
"g c None",
/* pixels */
"gggggggggggggggggggggggggggggggggggggggggggggggggggggggggggggggg",
"gggggggggggggggggggggggggg3333333333rigggggggggggggggggggggggggg",
"gggggggggggggggggggggg3333333333333333s333gggggggggggggggggggggg",
"ggggggggggggggggggggr3333333333333333333333rgggggggggggggggggggg",
"gggggggggggggggggg3333333333333333333333333333gggggggggggggggggg",
"ggggggggggggggggr3333333333333333333333333333333gggggggggggggggg",
"ggggggggggggggs33333333333333333333333333333333333gggggggggggggg",
"ggggggggggggg33333333333333333333333333333333333333ggggggggggggg",
"gggggggggggg3333333333333333333333333333333333333333gggggggggggg",
"ggggggggggg333333333333333333333333333333333333333333ggggggggggg",
"gggggggggg33333333333333333333333333333333333333333333gggggggggg",
"gggggggggr333333333333333333333333333333333333333333333ggggggggg",
"gggggggg33333333333333333333333333333333333333333333333rgggggggg",
"ggggggg3r333333333333333333333333333333333333333333333333ggggggg",
"gggggg333333333333333333333333333333333333333333333333333rgggggg",
"gggggg3333333333333333333333333333333333333333333333333333gggggg",
"gggggr33333333333333333333srr3rssr3rrsr3rrsr3rrssrrsrr3rsrgggggg",
"ggggg33333333333333333333ggggggggggggggggggggggggggggggggggggggg",
"gggg333333333333333333333ggggggggggggggggggggggggggggggggggggggg",
"gggg333333333333333333333ggggggggggggggggggggggggggggggggggggggg",
"ggg333333333333333333333gggggggggggggggggggggggggggggggggggggggg",
"ggg333333333333333333333gggggggggggggggggggggggggggggggggggggggg",
"gge33333333333333333333sgggggggggggggggggggggggggggggggggggggggg",
"gg333333333333333333333pgggggggggggggggggggggggggggggggggggggggg",
"gg3333333333333333333333gggggggg%%@@@@@@@@@@@@@@@@@@@@@@%@@@@@gg",
"gg333333333333333333333gggggggg@@@@@@@@@@@@@@@@@@@@@@@@@@@@@@@gg",
"gaw33333333333333333333gggggggg%@@@@@@@@@@@@@@@@@@@@@@@@@@@@@@@g",
"giw33333333333333333333gggggggg@@@@@@@@@@@@@@@@@@@@@@@@@@@@@@@%g",
"g3333333333333333333333gggggggg@@@@@@@@@@@@@@@@@@@@@@@@@@@@@@@%g",
"g3333333333333333333333gggggggg@@@@@@@@@@@@@@@@@@@@@@@@@@@@@@@@g",
"33333333333333333333333gggggggg@@@@@@@@@@@@@@@@@@@@@@@@@@@@@@@@@",
"ggggggggggggggggggggggggggggggggggggggggggg@@@@@@@@@@@@@@@@@@@@@",
"ggggggggggggggggggggggggggggggggggggggggggg#@@@@@@@@@@@@@@@@@@@@",
"ggggggggggggggggggggggggggggggggggggggggggg#@@@@@@@@@@@@@@@@@@@%",
"ggggggggggggggggggggggggggggggggggggggggggg#@@@@@@@@@@@@@@@@@@@g",
"ggggggggggggggggggggggggggggggggggggggggggg#@@@@@@@@@@@@@@@@@% g",
"ggggggggggggggggggggggggggggggggggggggggggg#@@@@@@@@@@@@@@@@@@@g",
"ggggggggggggggggggggggggggggggggggggggggggg@@@@@@@@@@@@@@@@@@@@g",
"ggggggggggggggggggggggggggggggggggggggggggg@@@@@@@@@@@@@@@@@@@gg",
"gg*@@@@@@@@@@@@@@@@@@gggggggg@%@@@@@@@@@@@@@@@@@@@@@@@@@@@@@@@gg",
"gg@@@@@@@@@@@@@@@@@@@gggggggg*@@@@@@@@@@@@@@@@@@@@@@@@@@@@@@@%gg",
"gg*@@@@@@@@@@@@@@@@@@gggggggg@@@@@@@@@@@@@@@@@@@@@@@@@@@@@@@@%gg",
"ggg@@@@@@@@@@@@@@@@@%gggggggg@@@@@@@@@@@@@@@@@@@@@@@@@@@@@@@@ggg",
"ggg@@@@@@@@@@@@@@@@@gggggggg*%@@@@@@@@@@@@@@@@@@@@@@@@@@@@@@@ggg",
"gggg@@@@@@@@@@@@@@@@gggggggg@@@@@@@@@@@@@@@@@@@@@@@@@@@@@@@@gggg",
"gggg%@@@@@@@@@@@@@@@gggggggg@@@@@@@@@@@@@@@@@@@@@@@@@@@@@@@@gggg",
"ggggg@@@@@@@@@@@@@@@gggggggg@@@@@@@@@@@@@@@@@@@@@@@@@@@@@@@ggggg",
"ggggg@@@@@@@@@@@@@@@gggggggg@@@@@@@@@@@@@@@@@@@@@@@@@@@@@@@ggggg",
"gggggg@@@@@@@@@@@@@-gggggggg@@@@@@@@@@@@@@@@@@@@@@@@@@@@@*gggggg",
"gggggg@@@@@@@@@@@@@gggggggg@@@@@@@@@@@@@@@@@@@@@@@@@@@@@@@gggggg",
"ggggggg%@@@@@@@@@@@gggggggg@@@@@@@@@@@@@@@@@@@@@@@@@@@@@@ggggggg",
"gggggggg@@@@@@@@@@@@@@@@@@@@@@@@@@@@@@@@@@@@@@@@@@@@@@@@gggggggg",
"ggggggggg%@@@@@@@@@@@@@@@@@@@@@@@@@@@@@@@@@@@@@@@@@@@@@ggggggggg",
"gggggggggg@@@@@@@@@@@@@@@@@@@@@@@@@@@@@@@@@@@@@@@@@@@@gggggggggg",
"ggggggggggg@@@@@@@@@@@@@@@@@@@@@@@@@@@@@@@@@@@@@@@@@@ggggggggggg",
"gggggggggggg@@@@@@@@@@@@@@@@@@@@@@@@@@@@@@@@@@@@@@@@gggggggggggg",
"ggggggggggggg@@@@@@@@@@@@@@@@@@@@@@@@@@@@@@@@@@@@%*ggggggggggggg",
"gggggggggggggg@@@@@@@@@@@@@@@@@@@@@@@@@@@@@@@@@@@*gggggggggggggg",
"gggggggggggggggg@%@@@@@@@@@@@@@@@@@@@@@@@@@@@@@@gggggggggggggggg",
"gggggggggggggggggg@@@@@@@@@@@@@@@@@@@@@@@@@@@@gggggggggggggggggg",
"gggggggggggggggggggg%@@@@@@@@@@@@@@@@@@@@@@%gggggggggggggggggggg",
"ggggggggggggggggggggggg*@@@@@@@@@@@@@@@@@ggggggggggggggggggggggg",
"ggggggggggggggggggggggggggg@@@##@@@@%ggggggggggggggggggggggggggg",
"gggggggggggggggggggggggggggggggggggggggggggggggggggggggggggggggg"
};
