/* XPM */
static char *_21d35f8635846c39b7711b8090de6c1[] = {
/* columns rows colors chars-per-pixel */
"128 128 87 1 ",
"  c #494B4B",
". c #4A4B4B",
"X c #4E4E4E",
"o c #4F5050",
"O c #505151",
"+ c #515151",
"@ c #515252",
"# c #535353",
"$ c #535454",
"% c gray33",
"& c #545555",
"* c #555555",
"= c #555656",
"- c #555757",
"; c #565656",
": c #565757",
"> c gray34",
", c #555858",
"< c #555959",
"1 c #565858",
"2 c #575858",
"3 c #565959",
"4 c #575959",
"5 c #585858",
"6 c #585959",
"7 c gray35",
"8 c #595A5A",
"9 c #5A5A5A",
"0 c #5B5B5B",
"q c #0771ED",
"w c #0573EF",
"e c #0F7CEF",
"r c #117BEB",
"t c #157BE8",
"y c #0674F1",
"u c #0477F1",
"i c #0777F6",
"p c #0678F3",
"a c #0379F6",
"s c #0578F4",
"d c #0579F5",
"f c #0678F4",
"g c #0679F4",
"h c #0678F5",
"j c #0679F5",
"k c #0779F5",
"l c #057AF4",
"z c #057AF5",
"x c #067AF4",
"c c #077AF4",
"v c #077BF4",
"b c #067AF5",
"n c #077AF5",
"m c #067BF5",
"M c #077BF5",
"N c #0479F6",
"B c #0579F6",
"V c #0479F7",
"C c #0678F6",
"Z c #0779F6",
"A c #0679F7",
"S c #057AF6",
"D c #047AF7",
"F c #067AF6",
"G c #067BF6",
"H c #077BF6",
"J c #077CF5",
"K c #077EF4",
"L c #067CF6",
"P c #077CF6",
"I c #077DF6",
"U c #067CF7",
"Y c #0A7BF1",
"T c #087AF3",
"R c #0C7BF0",
"E c #097DF3",
"W c #0B7DF2",
"Q c #087BF4",
"! c #087BF6",
"~ c #097CF4",
"^ c #087CF6",
"/ c #087DF6",
"( c #037AF8",
") c #047BF8",
"_ c #0C80F2",
"` c #0980F6",
"' c None",
/* pixels */
"''''''''''''''''''''''''''''''''''''''''''''''''''''''''''''''''''''''''''''''''''''''''''''''''''''''''''''''''''''''''''''''''",
"''''''''''''''''''''''''''''''''''''''''''''''''''''''''''''''''''''''''''''''''''''''''''''''''''''''''''''''''''''''''''''''''",
"'''''''''''''''''''''''''''''''''''''''''''''''''''''''bbbbbbbbbbbbbbbbWb'''''''''''''''''''''''''''''''''''''''''''''''''''''''",
"''''''''''''''''''''''''''''''''''''''''''''''''''!bbbbbbbbbbbbbbbbbbbbbbbbbbW''''''''''''''''''''''''''''''''''''''''''''''''''",
"''''''''''''''''''''''''''''''''''''''''''''''bbbbbbbbbbbbbbbbbbbbbbbbbbbbbbbbbbbi''''''''''''''''''''''''''''''''''''''''''''''",
"'''''''''''''''''''''''''''''''''''''''''''bbbbbbbbbbbbbbbbbbbbbbbbbbbbbbbbbbbbbbbbbb'''''''''''''''''''''''''''''''''''''''''''",
"''''''''''''''''''''''''''''''''''''''''bbbbbbbbbbbbbbbbbbbbbbbbbbbbbbbbbbbbbbbbbbbbbbTe''''''''''''''''''''''''''''''''''''''''",
"''''''''''''''''''''''''''''''''''''''bbbbbbbbbbbbbbbbbbbbbbbbbbbbbbbbbbbbbbbbbbbbbbbbbbbW''''''''''''''''''''''''''''''''''''''",
"''''''''''''''''''''''''''''''''''''bbbbbbbbbbbbbbbbbbbbbbbbbbbbbbbbbbbbbbbbbbbbbbbbbbbbbbb!''''''''''''''''''''''''''''''''''''",
"''''''''''''''''''''''''''''''''''bbbbbbbbbbbbbbbbbbbbbbbbbbbbbbbbbbbbbbbbbbbbbbbbbbbbbbbbbb!V''''''''''''''''''''''''''''''''''",
"''''''''''''''''''''''''''''''''Kbbbbbbbbbbbbbbbbbbbbbbbbbbbbbbbbbbbbbbbbbbbbbbbbbbbbbbbbbbbbbbb''''''''''''''''''''''''''''''''",
"'''''''''''''''''''''''''''''''bbbbbbbbbbbbbbbbbbbbbbbbbbbbbbbbbbbbbbbbbbbbbbbbbbbbbbbbbbbbbbbbbb'''''''''''''''''''''''''''''''",
"'''''''''''''''''''''''''''''bbbbbbbbbbbbbbbbbbbbbbbbbbbbbbbbbbbbbbbbbbbbbbbbbbbbbbbbbbbbbbbbbbbbb!'''''''''''''''''''''''''''''",
"''''''''''''''''''''''''''''bbbbbbbbbbbbbbbbbbbbbbbbbbbbbbbbbbbbbbbbbbbbbbbbbbbbbbbbbbbbbbbbbbbbbbbb''''''''''''''''''''''''''''",
"''''''''''''''''''''''''''Kbbbbbbbbbbbbbbbbbbbbbbbbbbbbbbbbbbbbbbbbbbbbbbbbbbbbbbbbbbbbbbbbbbbbbbbbbbb''''''''''''''''''''''''''",
"'''''''''''''''''''''''''bbbbbbbbbbbbbbbbbbbbbbbbbbbbbbbbbbbbbbbbbbbbbbbbbbbbbbbbbbbbbbbbbbbbbbbbbbbbb!'''''''''''''''''''''''''",
"''''''''''''''''''''''''Kbbbbbbbbbbbbbbbbbbbbbbbbbbbbbbbbbbbbbbbbbbbbbbbbbbbbbbbbbbbbbbbbbbbbbbbbbbbbbbb''''''''''''''''''''''''",
"'''''''''''''''''''''''bbbbbbbbbbbbbbbbbbbbbbbbbbbbbbbbbbbbbbbbbbbbbbbbbbbbbbbbbbbbbbbbbbbbbbbbbbbbbbbbbb'''''''''''''''''''''''",
"''''''''''''''''''''''bbbbbbbbbbbbbbbbbbbbbbbbbbbbbbbbbbbbbbbbbbbbbbbbbbbbbbbbbbbbbbbbbbbbbbbbbbbbbbbbbbbb''''''''''''''''''''''",
"'''''''''''''''''''''bbbbbbbbbbbbbbbbbbbbbbbbbbbbbbbbbbbbbbbbbbbbbbbbbbbbbbbbbbbbbbbbbbbbbbbbbbbbbbbbbbbbbb'''''''''''''''''''''",
"''''''''''''''''''''bbbbbbbbbbbbbbbbbbbbbbbbbbbbbbbbbbbbbbbbbbbbbbbbbbbbbbbbbbbbbbbbbbbbbbbbbbbbbbbbbbbbbbbb''''''''''''''''''''",
"'''''''''''''''''''bbbbbbbbbbbbbbbbbbbbbbbbbbbbbbbbbbbbbbbbbbbbbbbbbbbbbbbbbbbbbbbbbbbbbbbbbbbbbbbbbbbbbbbbbb'''''''''''''''''''",
"''''''''''''''''''bbbbbbbbbbbbbbbbbbbbbbbbbbbbbbbbbbbbbbbbbbbbbbbbbbbbbbbbbbbbbbbbbbbbbbbbbbbbbbbbbbbbbbbbbbbb''''''''''''''''''",
"'''''''''''''''''bbbbbbbbbbbbbbbbbbbbbbbbbbbbbbbbbbbbbbbbbbbbbbbbbbbbbbbbbbbbbbbbbbbbbbbbbbbbbbbbbbbbbbbbbbbbbb'''''''''''''''''",
"''''''''''''''''Vbbbbbbbbbbbbbbbbbbbbbbbbbbbbbbbbbbbbbbbbbbbbbbbbbbbbbbbbbbbbbbbbbbbbbbbbbbbbbbbbbbbbbbbbbbbbbbb''''''''''''''''",
"'''''''''''''''ebbbbbbbbbbbbbbbbbbbbbbbbbbbbbbbbbbbbbbbbbbbbbbbbbbbbbbbbbbbbbbbbbbbbbbbbbbbbbbbbbbbbbbbbbbbbbbbbW'''''''''''''''",
"''''''''''''''wVbbbbbbbbbbbbbbbbbbbbbbbbbbbbbbbbbbbbbbbbbbbbbbbbbbbbbbbbbbbbbbbbbbbbbbbbbbbbbbbbbbbbbbbbbbbbbbbbVs''''''''''''''",
"''''''''''''''Kbbbbbbbbbbbbbbbbbbbbbbbbbbbbbbbbbbbbbbbbbbbbbbbbbbbbbbbbbbbbbbbbbbbbbbbbbbbbbbbbbbbbbbbbbbbbbbbbbbb''''''''''''''",
"'''''''''''''bbbbbbbbbbbbbbbbbbbbbbbbbbbbbbbbbbbbbbbbbbbbbbbbbbbbbbbbbbbbbbbbbbbbbbbbbbbbbbbbbbbbbbbbbbbbbbbbbbbbbV'''''''''''''",
"''''''''''''ibbbbbbbbbbbbbbbbbbbbbbbbbbbbbbbbbbbbbbbbbbbbbbbbbbbbbbbbbbbbbbbbbbbbbbbbbbbbbbbbbbbbbbbbbbbbbbbbbbbbbbW''''''''''''",
"''''''''''''bbbbbbbbbbbbbbbbbbbbbbbbbbbbbbbbbbbbbbbbbbbbbbbbbbbbbbbbbbbbbbbbbbbbbbbbbbbbbbbbbbbbbbbbbbbbbbbbbbbbbbbb''''''''''''",
"'''''''''''VbbbbbbbbbbbbbbbbbbbbbbbbbbbbbbbbbbbbbbbbbbbbbbbbbbbbbbbbbbbbbbbbbbbbbbbbbbbbbbbbbbbbbbbbbbbbbbbbbbbbbbbbU'''''''''''",
"''''''''''WVbbbbbbbbbbbbbbbbbbbbbbbbbbbbbbbbbbbbbbbbbbbbbbbbbbbbbbbbbbbbbbbbbbbbbbbbbbbbbbbbbbbbbbbbbbbbbbbbbbbbbbbbKq''''''''''",
"''''''''''bbbbbbbbbbbbbbbbbbbbbbbbbbbbbbbbbbbbbbbb''''''''''''''''''''''''''''''''''''''''''''''''''''''''''''''''''''''''''''''",
"'''''''''bbbbbbbbbbbbbbbbbbbbbbbbbbbbbbbbbbbbbbbbb''''''''''''''''''''''''''''''''''''''''''''''''''''''''''''''''''''''''''''''",
"'''''''''bbbbbbbbbbbbbbbbbbbbbbbbbbbbbbbbbbbbbbbby''''''''''''''''''''''''''''''''''''''''''''''''''''''''''''''''''''''''''''''",
"''''''''bbbbbbbbbbbbbbbbbbbbbbbbbbbbbbbbbbbbbbbbb'''''''''''''''''''''''''''''''''''''''''''''''''''''''''''''''''''''''''''''''",
"''''''''bbbbbbbbbbbbbbbbbbbbbbbbbbbbbbbbbbbbbbbbb'''''''''''''''''''''''''''''''''''''''''''''''''''''''''''''''''''''''''''''''",
"'''''''ibbbbbbbbbbbbbbbbbbbbbbbbbbbbbbbbbbbbbbbbb'''''''''''''''''''''''''''''''''''''''''''''''''''''''''''''''''''''''''''''''",
"'''''''bbbbbbbbbbbbbbbbbbbbbbbbbbbbbbbbbbbbbbbbb!'''''''''''''''''''''''''''''''''''''''''''''''''''''''''''''''''''''''''''''''",
"'''''''bbbbbbbbbbbbbbbbbbbbbbbbbbbbbbbbbbbbbbbbbb'''''''''''''''''''''''''''''''''''''''''''''''''''''''''''''''''''''''''''''''",
"''''''WbbbbbbbbbbbbbbbbbbbbbbbbbbbbbbbbbbbbbbbbbK'''''''''''''''''''''''''''''''''''''''''''''''''''''''''''''''''''''''''''''''",
"''''''bbbbbbbbbbbbbbbbbbbbbbbbbbbbbbbbbbbbbbbbbb''''''''''''''''''''''''''''''''''''''''''''''''''''''''''''''''''''''''''''''''",
"'''''Vbbbbbbbbbbbbbbbbbbbbbbbbbbbbbbbbbbbbbbbbbb''''''''''''''''''''''''''''''''''''''''''''''''''''''''''''''''''''''''''''''''",
"'''''Vbbbbbbbbbbbbbbbbbbbbbbbbbbbbbbbbbbbbbbbbbb''''''''''''''''''''''''''''''''''''''''''''''''''''''''''''''''''''''''''''''''",
"'''''bbbbbbbbbbbbbbbbbbbbbbbbbbbbbbbbbbbbbbbbbbV''''''''''''''''''''''''''''''''''''''''''''''''''''''''''''''''''''''''''''''''",
"''''UbbbbbbbbbbbbbbbbbbbbbbbbbbbbbbbbbbbbbbbbbVt''''''''''''''''''''''''''''''''''''''''''''''''''''''''''''''''''''''''''''''''",
"''''WbbbbbbbbbbbbbbbbbbbbbbbbbbbbbbbbbbbbbbbbKVr''''''''''''''''''''''''''''''''''''''''''''''''''''''''''''''''''''''''''''''''",
"''''!bbbbbbbbbbbbbbbbbbbbbbbbbbbbbbbbbbbbbbbbbb''''''''''''''''2222*2-*-*22-*-*2-*2*22-*2*22-*2*-2-2-2-2-2-2-2-211*1*>1>1111''''",
"''''bbbbbbbbbbbbbbbbbbbbbbbbbbbbbbbbbbbbbbbbbbb''''''''''''''''22*222*22-22*22-2222-*-222-*-222-*2*2*2*2*2*2*2*211*1111*>*>*''''",
"'''/bbbbbbbbbbbbbbbbbbbbbbbbbbbbbbbbbbbbbbbbbbb''''''''''''''''*22*22-22*-*-22*2-*-22*2*-222-*-222-*22-*22-*22-**111*>*11>112'''",
"'''Vbbbbbbbbbbbbbbbbbbbbbbbbbbbbbbbbbbbbbbbbbbb''''''''''''''''2-*-22*-*2222-*-222*22-2-*2*-22*2*-22*-22*-22*-22>1>*11>11*1>@'''",
"'''!bbbbbbbbbbbbbbbbbbbbbbbbbbbbbbbbbbbbbbbbbbb''''''''''''''''2*22-*22-2222*-*2-*2*-2-222-*22-*2*22-*2*2*22-*2*11*>11*>222**'''",
"'''bbbbbbbbbbbbbbbbbbbbbbbbbbbbbbbbbbbbbbbbbbb`'''''''''''''''62-22*-22*-*-*22-2222-*2*2*-22*-222-*-222-2-*-222->*11>*11-*222'''",
"'''bbbbbbbbbbbbbbbbbbbbbbbbbbbbbbbbbbbbbbbbbbb''''''''''''''''2**-*-*-*-*22-22*2-*-222-*2*2*2*2*-222-*-2-222-*-21>1>1>1>*2*22'''",
"'''bbbbbbbbbbbbbbbbbbbbbbbbbbbbbbbbbbbbbbbbbbb''''''''''''''''2*22222222-22*-*-222*2*-222-2-2-2-*2*-22*2*2*-22*21*1*1*1*-222*'''",
"''WVbbbbbbbbbbbbbbbbbbbbbbbbbbbbbbbbbbbbbbbbbb''''''''''''''''22*-*-*222*22-*-*2-*2*22-*-2-2-2-222-*2*22-*2*22-*-2-2-2-2*22-*2''",
"''!bbbbbbbbbbbbbbbbbbbbbbbbbbbbbbbbbbbbbbbbbbb''''''''''''''''*2222222**-22*22-2222-*-22*2*2*2*2*-222-*-222-*-22*2*2*2*2-22*22''",
"''bbbbbbbbbbbbbbbbbbbbbbbbbbbbbbbbbbbbbbbbbbbb''''''''''''''''222-*22-22*-*-22*22*2*2*2*22-*22-*2*2*-222-*-22*2*22-*22-**-*-2*''",
"''bbbbbbbbbbbbbbbbbbbbbbbbbbbbbbbbbbbbbbbbbb!V'''''''''''''''2**2*-22**22222-*-22*222-2-*-22*-222-2-*2*-22*22-2-*-22*-22222222''",
"'bbbbbbbbbbbbbbbbbbbbbbbbbbbbbbbbbbbbbbbbbbbb''''''''''''''''*22222-2*222**2*-*22*22*-*-2*22-*2*-2-22*22-*2*-2-22*22-*2*-2-2**2'",
"'bbbbbbbbbb!bbbbbbbbbbbbbbbbbbbbbbbbbbbbbbbbb''''''''''''''''**2-*2*2*2*222222-22*2*22222-*-222-*2*22-*-222-*2*22-*-222-*2*2222'",
"''bVbV!bV!bVbbV!bbbbbbbbbbbbbbbbbbbbbbbbbbbbb''''''''''''''''66*222*6>*2*26**2*2*6222**2-222-*-222-*-222-*-222-*-222-*-2222*2**'",
"''''''''''''''''''''''''''''''''''''''''''''''''''''''''''''''''''''''''''''''''''''''22*2*-22*2*-22*2*-22*2*-22*2*-22*2*-2*222'",
"''''''''''''''''''''''''''''''''''''''''''''''''''''''''''''''''''''''''''''''''''''''>*222**2222-*2222-*2222-*2222-*2222-*2222'",
"''''''''''''''''''''''''''''''''''''''''''''''''''''''''''''''''''''''''''''''''''''''6*2*22-2-*2*-2-*2*-2-*2*-2-*2*-2-*2*-2-**'",
"''''''''''''''''''''''''''''''''''''''''''''''''''''''''''''''''''''''''''''''''''''''62*2*2*2*-2222*-2-*2*-2222*-2-*2*-2222*22'",
"''''''''''''''''''''''''''''''''''''''''''''''''''''''''''''''''''''''''''''''''''''''>*22*2-222-*-*222*-222-*-*222*-222-*-*222'",
"''''''''''''''''''''''''''''''''''''''''''''''''''''''''''''''''''''''''''''''''''''''622-*22-*2*-*-222-*222*-*-2-*22-*2*-*222''",
"''''''''''''''''''''''''''''''''''''''''''''''''''''''''''''''''''''''''''''''''''''''**2*-22*-22222-*2*-2-*22222*-22*-22222*2''",
"''''''''''''''''''''''''''''''''''''''''''''''''''''''''''''''''''''''''''''''''''''''*2222222222-*2*-2-*2*-2-*2222222222-2*6.''",
"''''''''''''''''''''''''''''''''''''''''''''''''''''''''''''''''''''''''''''''''''''''62-*-*-*-*2*-2222*-2222*-2-*-*-*-*2*226.''",
"''''''''''''''''''''''''''''''''''''''''''''''''''''''''''''''''''''''''''''''''''''''6*22222222222-*222222-*222222222222-*22'''",
"''''''''''''''''''''''''''''''''''''''''''''''''''''''''''''''''''''''''''''''''''''''*2-*-*-*-*-*2*-2-*-*2*-2-*-*-*-*-*2*-2-'''",
"''''''''''''''''''''''''''''''''''''''''''''''''''''''''''''''''''''''''''''''''''''''*2*22-*22-*-2-*2*-*-2-*2*-*22-*22-2222*'''",
"''''''''''''''''''''''''''''''''''''''''''''''''''''''''''''''''''''''''''''''''''''''6*-22*-22*222*-222222*-222-22*-22*-*-**'''",
"''''''''''''''''''''''''''''''''''''''''''''''''''''''''''''''''''''''''''''''''''''''22*-*22-*-2-*22-*22-*22-*2*-*22-*-222*2'''",
"''''2'''''''''''''''''''''''''''''''''''''''''''''''''''''''''''''''''''''''''''''''''-*22-22*222*-22*-22*-22*-222-22*22-*222'''",
"''''0*22*2222**2*222*2*22-2*22-**22-2*222*''''''''''''''''o22**2*2*222*2*222*2*222*2*22-22*22-22222222222222222222*22-22*2*2''''",
"''''222*22**2222*2*222*22*222*22*22*222*22''''''''''''''''**22-222*2*222*2*222*2*222*22*-*-22*-*-*-*-*-*-*-*-*-*-*-22*-*-222''''",
"''''2*222*2-*-*2-*2*22-*2*22-*2*222*2-*-*-''''''''''''''''2**2222*2-*-*22-*-*22-*22-*-*22-*-*22-2*2*2*2*2*2*2*2**-*22-*-*2*2''''",
"'''''22*222*22-2222-*-222-*-222-2*222*22*2''''''''''''''''22-2-*222*22-22*22-22*-22*22-22*22-22*2-2-2-2-2-2-2-2-22-22*22-22'''''",
"'''''**2*-*-22*2-*-22*2*-222-*-222*22-222*''''''''''''''''*2*2*-*-*-22*22-22*-*-*-*-22*22-22*-*--*22-*22-*22-*2222*22-22*-*'''''",
"'''''2222222-*-222*22-2-*2*-22*2-*-22*-*2''''''''''''''''o22-2222222-*-22*-*22222222-*-22*-*222222*-22*-22*-22*--*-22*-*222'''''",
"'''''62*2222*-*2-*2*-2-222-*22-**22-*22-2''''''''''''''''22*22*22222*-*22-*-22222222*-*22-*-2222-2-*22-2-2-*22-2*22-*22-222'''''",
"''''''2*-*-*22-2222-*2*2*-22*-22-22*-22**''''''''''''''''22*2*-2-*-*22-22*22-*-*-*-*22-22*22-*-**222*-*2*222*-*2-22*-22***''''''",
"''''''22*22-22*2-*-222-*2*2*2*2**-*-*-*-2''''''''''''''''2222222*22-22*22-22*22-*22-22*22-22*22-2*-*222*2*-*222**-*-*-*-2*''''''",
"'''''''2-22*-*-222*2*-222-2-2-2-222222222''''''''''''''''**2-*-*-22*-*-22*-*-22*-22*-*-22*-*-22*2-22*-2-2-22*-2-222222222'''''''",
"'''''''2*2*2222--*2*22-*-2-2-2-2-2-2-2-22''''''''''''''''2222222*-*22-*-*-*22-*-*-*22-*-*-*22-*--*22-2-*22-2-*222*2*222*2'''''''",
"'''''''2-2-2-*2*222-*-22*2*2*2*2*2*2*2*2''''''''''''''''2*-*-*-*22-22*2222-22*2222-22*2222-22*2222*-*222*-*222*-2-2-**226'''''''",
"''''''''*222*-2--*-22*2*22-*22-*22-*222*''''''''''''''''-*2-*22-22*22-2222*22-2222*22-2222*22-22-2-22*-*222*-2-2-*2222*2''''''''",
"''''''''22-*222*22*22-2-*-22*-22*-22*-2*''''''''''''''''*22*-22*-*-22*-*-*-22*-*-*-22*-*-*-22*-**2*22-22*-2-*2*222*22*>@''''''''",
"'''''''''*2*222--*2*-2-22*22-*2*2*22*222''''''''''''''''222-2-*-*22-*22-*22-*22-*22-*22-*22-*22-2*2*-2-*22-22*2*-2-*2*2'''''''''",
"'''''''''@22-*2*222-*2*22-*-222-2-*-22*2''''''''''''''''2*2*2*22-22*-22*-22*-22*-22*-22*-22*-22*2-2-*222*-*22-2-*2222*-'''''''''",
"''''''''''*2*-2--*-222-*-222-*-2-2222*2*''''''''''''''''*-2-2-22*-*-*-*-*-*-*-*-*-*-*-*-*-*-*-*--*222*-*222*-*222*-*22''''''''''",
"'''''''''''2222*22*2*-22*2*-22*2*2*-2*2''''''''''''''''2222*2*-*2222222222222222222222222222222222*-2-22*-2-22*-2-22*'''''''''''",
"'''''''''''22**222*2*2222-*2222-22-2-*2''''''''''''''''22-*-*22--2-2-2-2-2-2-2-2-2-2-2-2-2-2-2-2-*22-2-*-*2*22-*2*22*'''''''''''",
"''''''''''''2222*2-2-2-*2*-2-*2**-*2222''''''''''''''''22*22-22**2*2*2*2*2*2*2*2*2*2*2*2*2*2*2*222*-*222222-*-222-*-''''''''''''",
"'''''''''''''2**22*2*2*-2222*-2-222*-22''''''''''''''''*2-22*-*-22-*22-*22-*22-*22-*22-*22-*22-*-2-22*-*-*-22*2**22'''''''''''''",
"'''''''''''''*22-*-2-222-*-*222**-2-*2X''''''''''''''''22*-*2222*-22*-22*-22*-22*-22*-22*-22*-22*2*22-2222*22-2-22*'''''''''''''",
"''''''''''''''22*2*22-*2*-*-222-22-2*2-''''''''''''''''22-*-22222*22-*2*2*22-*2*2*22-*2*2*22-*2*2*2*-2-*-*2*2**22*''''''''''''''",
"'''''''''''''''*-2-22*-22222-*2**-*22*2'''''''''''''''2*2*22-*-*2-*-222-2-*-222-2-*-222-2-*-222-2-2-*222222-22222'''''''''''''''",
"'''''''''''''''22*2222222-*2*-2-222*2*22**2222***2222*222-22*22--222-*-2-222-*-2-222-*-2-222-*-2-*222*-*-*-2*22*-'''''''''''''''",
"''''''''''''''''@22*-*-*2*-2222**-2-22*-222**222*2*-222*2*-*-22**2*-22*2*2*-22*2*2*-22*2*2*-22*222*-2-2222*2*2*6''''''''''''''''",
"'''''''''''''''''22*-2222-*2222-22-2-*222*2*2*2*222*2-*-*-*22-*-22-*2*22-*2*22-*22-*2*22-*2*22-*-2-*22-2-2-*222'''''''''''''''''",
"''''''''''''''''''22*2**2*-2-*2**-*222*-2-2-2-2-2*222*2222-22*22*-222-*-222-*-22*-222-*-222-*-22*222*-*2*222*2''''''''''''''''''",
"'''''''''''''''''''222222222*-2-222*-2-2-*22-*2222*22-2222*22-222*2*-222-*-22*2*2*2*-222-*-22*2*2*-*222*2*-*2'''''''''''''''''''",
"''''''''''''''''''''*-*2-*-*222**-2-*2*222*-22*--*-22*-*-*-22*-*2-2-*2*-22*22-2-2-2-*2*-22*22-2-2-22*-2-2-22''''''''''''''''''''",
"'''''''''''''''''''''*22*-*-222-22-22*2*-2-*22-2*22-*22-*22-*22--2-22*22-*2*-2-2-2-22*22-*2*-2-2-*22-*22-**'''''''''''''''''''''",
"''''''''''''''''''''''2*2222-*2**-*22-2-*222*-*2-22*-22*-22*-22**2*22-*-222-*2*2*2*22-*-222-*2*222*-22*,22''''''''''''''''''''''",
"'''''''''''''''''''''''*2-*2*-2-222*-*222*-*222**-*-*-*-*-*-*-*-22-*-222-*-222-*22-*-222-*-222-*-2-2-2-22'''''''''''''''''''''''",
"''''''''''''''''''''''''-2-2222**-2-22*-2-22*-2-2222222222222222*-22*2*-22*2*-22*-22*2*-22*2*-22*2*2*2*2''''''''''''''''''''''''",
"'''''''''''''''''''''''''-*2222*22-2-*22-2-*22-2-2-2-2-2-2-2-2-22*22-*2*22-*2*222-*-*22-*-*22*2**222*26'''''''''''''''''''''''''",
"'''''''''''''''''''''''''''*2*22*-*222*-*222*-*2*2*2*2*2*2*2*2*22-*-222-*-222-*-2*22-22*22-22*2-22**2'''''''''''''''''''''''''''",
"''''''''''''''''''''''''''''6**2222*-2-22*-*222*22-*22-*22-*22-*-222-*-22*2*-2222-22*-*-22*222*22-22''''''''''''''''''''''''''''",
"''''''''''''''''''''''''''''''-2*-22*2*22-22*-2-*-22*-22*-22*-22*2*-22*22-2-*2*-2*-*2222-*-2*2222*''''''''''''''''''''''''''''''",
"'''''''''''''''''''''''''''''''22*22*222-*22-*222*22-*2*2*22-*2*22-*22-*-2-22*222-*-222**222-*2*-'''''''''''''''''''''''''''''''",
"'''''''''''''''''''''''''''''''''22*22**22*-22*-2-*-222-2-*-222-*-22*-22*2*22-*-2*22-*22-2*2226'''''''''''''''''''''''''''''''''",
"'''''''''''''''''''''''''''''''''''*2-22-2-2-2-2-222-*-2-222-*-22*2*2*2*22-*-2222-22*2*2*222-'''''''''''''''''''''''''''''''''''",
"''''''''''''''''''''''''''''''''''''2**2*2*2*2*2*2*-22*2*2*-22*22-2-2-2-*-22*2*-2*-*-22222-o''''''''''''''''''''''''''''''''''''",
"'''''''''''''''''''''''''''''''''''''''22**22**222-*2*22-*2*22-*-2-2-22222-*2*2222**222**'''''''''''''''''''''''''''''''''''''''",
"'''''''''''''''''''''''''''''''''''''''''2222222*-222-*-222-*-22*2*2*2***-222-*-*2222*2'''''''''''''''''''''''''''''''''''''''''",
"''''''''''''''''''''''''''''''''''''''''''''2*2*2*2*-2222*2*2*2*22-*22222*2*-222*222''''''''''''''''''''''''''''''''''''''''''''",
"'''''''''''''''''''''''''''''''''''''''''''''''62-2-*2*-2*222-2-*-22*-*22-2-*2*-2'''''''''''''''''''''''''''''''''''''''''''''''",
"'''''''''''''''''''''''''''''''''''''''''''''''''''222*22*22222*222-*2222*22,'''''''''''''''''''''''''''''''''''''''''''''''''''",
"'''''''''''''''''''''''''''''''''''''''''''''''''''''''''22***222*2*22*'''''''''''''''''''''''''''''''''''''''''''''''''''''''''",
"''''''''''''''''''''''''''''''''''''''''''''''''''''''''''''''''''''''''''''''''''''''''''''''''''''''''''''''''''''''''''''''''",
"''''''''''''''''''''''''''''''''''''''''''''''''''''''''''''''''''''''''''''''''''''''''''''''''''''''''''''''''''''''''''''''''"
};
